<svg xmlns="http://www.w3.org/2000/svg" viewBox="0 0 699.38 755.96"><defs><style>.cls-1{fill:#0b1028;}.cls-2{fill:#a4a4a4;}.cls-3{fill:#cd7b00;}.cls-4{fill:#66686a;}</style></defs><g id="Layer_2" data-name="Layer 2"><g id="Layer_1-2" data-name="Layer 1"><path class="cls-1" d="M668.94,350a319.5,319.5,0,0,1-214.81,301.4c-.33-1.25-.71-2.52-1.11-3.77q6.42-7.1,12.15-14.67A306.19,306.19,0,0,0,655.54,350q0-11.44-.86-23.06A305.86,305.86,0,0,0,350,43.84q-11.44,0-23.06.86A305.85,305.85,0,0,0,43.83,349.36q0,11.44.87,23.06A306.16,306.16,0,0,0,234.21,633q5.73,7.57,12.15,14.68c-.41,1.27-.78,2.53-1.12,3.79a319.57,319.57,0,0,1-213.9-278q-.91-12.1-.9-24.06A319.26,319.26,0,0,1,326,31.34q12.1-.89,24.06-.9A319.26,319.26,0,0,1,668,326Q668.93,338.08,668.94,350Z"/><path class="cls-1" d="M72.51,368.35H59.41q-.63-9.56-.63-19c0-.53,0-1,0-1.57H71.86c0,.53,0,1,0,1.57C71.85,355.65,72.07,362,72.51,368.35Z"/><path class="cls-1" d="M77.69,406.11H64.35q-.87-4.42-1.62-8.91c-.41-2.43-.78-4.87-1.12-7.3H74.82c.25,1.72.52,3.45.81,5.17C76.24,398.78,76.93,402.47,77.69,406.11Z"/><path class="cls-1" d="M218.64,609.37A291.07,291.07,0,0,1,69.44,427.66H83A277.84,277.84,0,0,0,208.33,588.82,217.81,217.81,0,0,0,218.64,609.37Z"/><path class="cls-1" d="M616.37,427.66H630A291.54,291.54,0,0,1,480.66,609.47,216.17,216.17,0,0,0,491,589,278.71,278.71,0,0,0,616.37,427.66Z"/><path class="cls-1" d="M637.82,389.9q-1.14,8.18-2.73,16.21H621.74q1.69-8,2.88-16.21Z"/><path class="cls-1" d="M640.59,350q0,9.23-.58,18.32h-13.1q.6-9.09.61-18.32c0-.75,0-1.5,0-2.25h13.07C640.57,348.53,640.59,349.28,640.59,350Z"/><path class="cls-1" d="M105.71,406.11H95.22q-1.75-8-3-16.21-1.64-10.65-2.4-21.55H100q.81,10.92,2.53,21.55Q103.85,398.09,105.71,406.11Z"/><path class="cls-1" d="M198.54,562A261.43,261.43,0,0,1,101,427.66H111.7a251,251,0,0,0,82.72,118.45Q196.22,554.19,198.54,562Z"/><path class="cls-1" d="M587.66,427.66h10.73A261.43,261.43,0,0,1,500.84,562q2.32-7.8,4.12-15.88a250.9,250.9,0,0,0,82.7-118.45Z"/><path class="cls-1" d="M609.6,368.35q-.76,10.9-2.42,21.55-1.26,8.19-3,16.21H593.65q1.88-8,3.19-16.21,1.71-10.62,2.52-21.55Z"/><path class="cls-1" d="M699.38,349.69A350,350,0,0,1,456.55,682.74a76.73,76.73,0,0,0,.41-14.55,335.71,335.71,0,1,0-214.55,0,77.59,77.59,0,0,0,.41,14.55,349.74,349.74,0,1,1,456.56-333Z"/><polygon class="cls-1" points="349.69 56.85 354.17 70.64 368.66 70.64 356.94 79.16 361.42 92.94 349.69 84.42 337.96 92.94 342.44 79.16 330.72 70.64 345.21 70.64 349.69 56.85"/><polygon class="cls-1" points="229.63 83.47 239.51 94.07 252.65 87.94 245.62 100.62 255.51 111.22 241.28 108.45 234.25 121.13 232.49 106.75 218.26 103.98 231.39 97.86 229.63 83.47"/><polygon class="cls-1" points="132.06 158.33 145.5 163.76 154.82 152.66 153.81 167.12 167.25 172.55 153.18 176.05 152.17 190.51 144.49 178.22 130.43 181.73 139.74 170.63 132.06 158.33"/><polygon class="cls-1" points="75.28 267.42 89.75 266.66 93.5 252.66 98.7 266.19 113.17 265.43 101.91 274.55 107.1 288.08 94.95 280.19 83.68 289.31 87.43 275.31 75.28 267.42"/><polygon class="cls-1" points="349.69 56.85 345.21 70.64 330.72 70.64 342.44 79.16 337.96 92.94 349.69 84.42 361.42 92.94 356.94 79.16 368.66 70.64 354.17 70.64 349.69 56.85"/><polygon class="cls-1" points="469.75 83.47 459.87 94.07 446.73 87.94 453.76 100.62 443.87 111.22 458.1 108.45 465.13 121.13 466.89 106.75 481.12 103.98 467.99 97.86 469.75 83.47"/><polygon class="cls-1" points="567.32 158.33 553.88 163.76 544.56 152.66 545.57 167.12 532.13 172.55 546.2 176.05 547.21 190.51 554.89 178.22 568.95 181.73 559.64 170.63 567.32 158.33"/><polygon class="cls-1" points="624.1 267.42 609.63 266.66 605.88 252.66 600.68 266.19 586.21 265.43 597.47 274.55 592.28 288.08 604.43 280.19 615.7 289.31 611.95 275.31 624.1 267.42"/><path class="cls-2" d="M322.68,297.56a17.79,17.79,0,1,1-17.79-17.79,17.78,17.78,0,0,1,17.79,17.79A11.68,11.68,0,1,0,311,309.24,11.68,11.68,0,0,0,322.68,297.56Z"/><path class="cls-1" d="M488.76,488.32c0,57-18.19,112.05-62,154.29q-1.86,1.82-3.79,3.57c-.57-.72-1.19-1.41-1.82-2.06a46.85,46.85,0,0,1-5.44,5.93v2.5q-3.87,3.23-8,6.34V656.2a81.21,81.21,0,0,1-11,5.92v4.61q-3.9,2.6-8,5.11v-6.55A127.58,127.58,0,0,1,376.19,669V677a9.88,9.88,0,0,0,.21,2,284.52,284.52,0,0,1-26.71,12.58A280.16,280.16,0,0,1,323,679a11.24,11.24,0,0,0,.19-2V669a127.58,127.58,0,0,1-12.64-3.75v6.52c-2.71-1.66-5.37-3.37-7.95-5.11v-4.58a82,82,0,0,1-11-5.92v2.66q-4.08-3.11-7.94-6.34v-2.47a45.53,45.53,0,0,1-5.45-5.93,23.86,23.86,0,0,0-1.81,2c-1.29-1.18-2.56-2.38-3.81-3.58-43.78-42.25-61.95-97.29-61.95-154.27,0-52.07,15.48-95.06,27-119.95a0,0,0,0,0,0,0,78,78,0,0,0,26.12,17.77S181,538.52,349.69,638.92c168.69-100.4,85.87-252.81,85.87-252.81a78,78,0,0,0,26.12-17.77C473.26,393.23,488.76,436.24,488.76,488.32Z"/><path class="cls-1" d="M426.82,642.61s0,0,0,0c-1.38-2.71-2.94-5.5-4.73-8.32l-72.35,15.55h0l-72.38-15.56q-2.65,4.23-4.73,8.32C233.63,719.35,349.69,756,349.69,756S465.72,719.35,426.82,642.61ZM283.63,678a43.93,43.93,0,0,1-10.84-11.16,10.44,10.44,0,0,1-1.78-6.28,24.74,24.74,0,0,1,5.37-14.4,23.59,23.59,0,0,1,1.82-2,45.36,45.36,0,0,0,5.43,5.94Zm18.93,8.29a56.19,56.19,0,0,1-11-3.67V656.19a82.47,82.47,0,0,0,11,5.94Zm9,1.38-1-.09V665.3c3.81,1.34,8,2.61,12.63,3.75V677a11.24,11.24,0,0,1-.18,2A10.74,10.74,0,0,1,311.52,687.67Zm77.35-.09-1,.09A10.72,10.72,0,0,1,376.43,679a10.46,10.46,0,0,1-.19-2v-7.92c4.6-1.14,8.79-2.4,12.59-3.74h0Zm18.93-5a56.19,56.19,0,0,1-11,3.67V662.13a83.69,83.69,0,0,0,10.94-5.91s0,0,0,0Zm7.95-4.62v-28a45.2,45.2,0,0,0,5.42-5.93h0a24,24,0,0,1,1.82,2.07h0a24.62,24.62,0,0,1,5.36,14.37,10.44,10.44,0,0,1-1.78,6.28A43.93,43.93,0,0,1,415.75,678Z"/><path class="cls-2" d="M412.27,297.56a17.78,17.78,0,1,1-35.56,0,11.68,11.68,0,1,0,11.67-11.68,11.68,11.68,0,0,0-11.67,11.68,17.78,17.78,0,1,1,35.56,0Z"/><path class="cls-2" d="M508,197.27c-25.78-3.56-56.22,5.22-91.61,37.86A443.86,443.86,0,0,1,354.42,283c.12-1.17.27-2.36.47-3.55a55,55,0,0,1,2.66-9.79,60.58,60.58,0,0,1,10.56-17.74,75.2,75.2,0,0,1,7.42-7.52c1.35-1.13,2.68-2.32,4.12-3.36l2.14-1.6L384,237.9a109.1,109.1,0,0,1,19-10.14,110.35,110.35,0,0,0-20.24,8.17l-2.41,1.31L378,238.66c-1.6.92-3.09,2-4.63,3a73.81,73.81,0,0,0-8.64,7.09,66.26,66.26,0,0,0-13.53,18.1c-.54,1.08-1.06,2.18-1.53,3.28-.47-1.1-1-2.2-1.53-3.28a65.27,65.27,0,0,0-13.53-18.1,75.3,75.3,0,0,0-8.62-7.09c-1.53-1-3-2.1-4.63-3L319,237.24l-2.43-1.31a110.35,110.35,0,0,0-20.24-8.17,109.64,109.64,0,0,1,19.06,10.14l2.21,1.54,2.13,1.6c1.44,1,2.76,2.23,4.14,3.36a76.08,76.08,0,0,1,7.4,7.52,60.37,60.37,0,0,1,10.56,17.74,54.21,54.21,0,0,1,2.66,9.79c.19,1.19.37,2.38.48,3.56a444.52,444.52,0,0,1-62-47.88c-35.39-32.64-65.83-41.42-91.61-37.86,0,0,29.35-18.83,73.25,4.71,6.11,3.93,10.55,6.71,15.58,7.33h0c3.33.42,6.91-.1,11.4-1.83,11.31-4.31,38.06-10.69,58-10.69s46.71,6.38,58,10.69c4.49,1.73,8.07,2.25,11.4,1.83h0c5-.62,9.47-3.4,15.58-7.33C478.62,178.44,508,197.27,508,197.27Z"/><path class="cls-3" d="M349.69,315.34S332.61,326.41,332.61,334s17.08,39.5,17.08,39.5,17.08-31.89,17.08-39.5S349.69,315.34,349.69,315.34Z"/><path class="cls-1" d="M513.05,203.07s-29.22-10.6-85.18,34.24-67.89,56-78.18,56-22.23-11.11-78.18-56-85.18-34.24-85.18-34.24c33.34,10.59,56.78,54,56.78,54-42.79,70.77,6.17,121.78,43.63,121.78,26.08,0,42.25-7.39,51.66-14.3-6.06-12.77-11.76-26.05-11.76-30.54,0-9.8,13.85-19.83,19.81-23.69l3.24-2.1,3.24,2.1c6,3.86,19.81,13.89,19.81,23.69,0,4.49-5.7,17.77-11.76,30.54,9.41,6.91,25.58,14.3,51.66,14.3,37.46,0,86.42-51,43.63-121.78C456.27,257.08,479.71,213.66,513.05,203.07ZM305.49,328.47a31.95,31.95,0,0,1-7.35-63L337.44,297A31.94,31.94,0,0,1,305.49,328.47Zm88.4,0A31.94,31.94,0,0,1,361.94,297l39.3-31.51a31.95,31.95,0,0,1-7.35,63Z"/><path class="cls-2" d="M349.69,584.76S235,533.08,274.9,400.19a68.13,68.13,0,0,0,11.84,1.05c30.9,0,51.06-9.08,62.95-17.26,11.89,8.18,32.05,17.26,62.95,17.26a68.13,68.13,0,0,0,11.84-1.05C464.37,533.08,349.69,584.76,349.69,584.76Z"/><path class="cls-4" d="M349.69,584.76S235,533.08,274.9,400.19c0,0-9.07,95.68,74.79,129.78,83.86-34.1,74.79-129.78,74.79-129.78C464.37,533.08,349.69,584.76,349.69,584.76Z"/><path class="cls-4" d="M419.11,209.31c-48,12-69.42,37.26-69.42,37.26s-21.38-25.23-69.42-37.26c3.33.42,6.91-.1,11.4-1.83,11.31-4.31,38.06-10.69,58-10.69s46.71,6.38,58,10.69C412.2,209.21,415.78,209.73,419.11,209.31Z"/></g></g></svg>